<svg xmlns="http://www.w3.org/2000/svg" width="16" height="16" viewBox="0 0 16 16"><path d="m 7.9799469,1037.3293 c -0.7609678,0 -1.3882624,0.6255 -1.3882624,1.3863 l 0,0.8479 c -0.1780557,0.064 -0.3531202,0.1361 -0.5238035,0.2179 l -0.5970627,-0.5988 c -0.5381168,-0.5381 -1.4252303,-0.5381 -1.9633472,0 l -0.6886367,0.6885 c -0.5380968,0.5382 -0.5380968,1.4268 0,1.965 l 0.5970626,0.5951 c -0.080578,0.171 -0.1513154,0.3456 -0.2142832,0.5238 l -0.8479754,0 c -0.7609677,0 -1.38826239,0.6271 -1.38826239,1.388 l 0,0.9743 c 0,0.7609 0.62729469,1.3881 1.38826239,1.3881 l 0.8443125,0 c 0.063631,0.1776 0.1367769,0.3514 0.2179461,0.5219 l -0.5970626,0.5988 c -0.5380968,0.538 -0.5381708,1.4251 0,1.9631 l 0.6886367,0.6904 c 0.5381415,0.538 1.4252058,0.538 1.9633472,0 l 0.5952312,-0.5988 c 0.1715365,0.081 0.3468177,0.1511 0.525635,0.2142 l 0,0.8479 c 0,0.7608 0.6272946,1.3899 1.3882624,1.3899 l 0.9743475,0 c 0.7609677,0 1.3882626,-0.6291 1.3882626,-1.3899 l 0,-0.8424 c 0.178458,-0.064 0.350911,-0.1397 0.521972,-0.2216 l 0.598893,0.6007 c 0.538142,0.538 1.427039,0.538 1.96518,0 l 0.686805,-0.6904 c 0.538171,-0.538 0.538097,-1.4251 0,-1.9631 l -0.595231,-0.597 c 0.08061,-0.1711 0.151311,-0.3454 0.214283,-0.5237 l 0.846144,0 c 0.760968,0 1.388262,-0.6272 1.388262,-1.3881 l 0,-0.9743 c 0,-0.7609 -0.627294,-1.388 -1.388262,-1.388 l -0.846144,0 c -0.06394,-0.1774 -0.134698,-0.3519 -0.216115,-0.522 l 0.597063,-0.5969 c 0.538097,-0.5382 0.538097,-1.4268 0,-1.965 l -0.686805,-0.6885 c -0.538117,-0.5381 -1.427062,-0.5381 -1.96518,0 l -0.597061,0.597 c -0.171448,-0.081 -0.345086,-0.153 -0.523804,-0.2161 l 0,-0.8479 c 0,-0.7608 -0.6272949,-1.3863 -1.3882626,-1.3863 l -0.9743475,0 z m 0,0.9376 0.9743475,0 c 0.2580262,0 0.4505443,0.1907 0.4505443,0.4487 l 0,1.1592 a 0.46890594,0.46884871 0 0 0 0.3424869,0.4505 c 0.3500934,0.098 0.6874104,0.2377 1.0054824,0.4138 a 0.46890594,0.46884871 0 0 0 0.558602,-0.079 l 0.815009,-0.8149 c 0.182421,-0.1825 0.454934,-0.1825 0.637355,0 l 0.688637,0.6885 c 0.18244,0.1825 0.18244,0.4549 0,0.6373 l -0.820504,0.8186 a 0.46890594,0.46884871 0 0 0 -0.07509,0.5622 c 0.178228,0.3166 0.318866,0.6525 0.419409,1.0017 a 0.46890594,0.46884871 0 0 0 0.452376,0.3388 l 1.152001,0 c 0.258026,0 0.450544,0.1925 0.450544,0.4504 l 0,0.9743 c 0,0.2579 -0.192518,0.4505 -0.450544,0.4505 l -1.157496,0 a 0.46890594,0.46884871 0 0 0 -0.452376,0.3424 c -0.09818,0.3501 -0.235917,0.6874 -0.412083,1.0054 a 0.46890594,0.46884871 0 0 0 0.07875,0.5585 l 0.815009,0.8149 c 0.18244,0.1824 0.182366,0.455 0,0.6373 l -0.688637,0.6885 c -0.182396,0.1823 -0.454959,0.1823 -0.637355,0 l -0.818672,-0.8185 a 0.46890594,0.46884871 0 0 0 -0.562264,-0.077 c -0.316718,0.1781 -0.652583,0.3188 -1.0018204,0.4193 a 0.46890594,0.46884871 0 0 0 -0.3388239,0.4505 l 0,1.1537 c 0,0.258 -0.1925181,0.4505 -0.4505443,0.4505 l -0.9743475,0 c -0.2580263,0 -0.4505443,-0.1925 -0.4505443,-0.4505 l 0,-1.1574 a 0.46890594,0.46884871 0 0 0 -0.3424869,-0.4504 c -0.3500935,-0.098 -0.6874104,-0.236 -1.0054829,-0.4121 a 0.46890594,0.46884871 0 0 0 -0.5586015,0.077 l -0.815009,0.8149 c -0.1823954,0.1823 -0.4549598,0.1823 -0.6373551,0 l -0.6886368,-0.6903 c -0.182366,-0.1823 -0.1824401,-0.4531 0,-0.6355 l 0.8168403,-0.8167 a 0.46890594,0.46884871 0 0 0 0.078754,-0.5604 c -0.1777696,-0.3173 -0.3176825,-0.6539 -0.4175775,-1.0035 a 0.46890594,0.46884871 0 0 0 -0.4523758,-0.3406 l -1.1538327,0 c -0.2580263,0 -0.4505444,-0.1926 -0.4505443,-0.4505 l 0,-0.9743 c 0,-0.2579 0.192518,-0.4523 0.4505443,-0.4523 l 1.1574957,0 a 0.46890594,0.46884871 0 0 0 0.4523757,-0.3406 c 0.09818,-0.35 0.2359169,-0.6874 0.4120832,-1.0053 a 0.46890594,0.46884871 0 0 0 -0.078754,-0.5586 l -0.8150089,-0.8149 c -0.1824401,-0.1824 -0.1824401,-0.4548 0,-0.6373 l 0.6886368,-0.6885 c 0.18242,-0.1825 0.454935,-0.1825 0.6373551,0 l 0.8186719,0.8186 a 0.46890594,0.46884871 0 0 0 0.5604331,0.077 c 0.3167138,-0.1782 0.6525784,-0.3188 1.0018199,-0.4194 a 0.46890594,0.46884871 0 0 0 0.3406554,-0.4505 l 0,-1.1555 c 0,-0.258 0.192518,-0.4487 0.4505443,-0.4487 z m 0.4871737,3.7504 c -1.5480649,0 -2.8130913,1.2649 -2.8131542,2.8129 -3.1e-6,1.5479 1.2650432,2.8128 2.8131542,2.8128 1.5481114,0 2.8149884,-1.2649 2.8149854,-2.8128 -6.3e-5,-1.548 -1.266921,-2.8129 -2.8149854,-2.8129 z m 0,0.9377 c 1.0412976,0 1.8753944,0.834 1.8754364,1.8752 2e-6,1.0411 -0.8341067,1.8752 -1.8754364,1.8752 -1.0413298,0 -1.8754382,-0.8341 -1.8754361,-1.8752 4.23e-5,-1.0412 0.8341383,-1.8752 1.8754361,-1.8752 z" color="#000" font-family="sans-serif" font-weight="400" overflow="visible" transform="matrix(1.06642 0 0 1.06642 -1.03 -1106.225)" white-space="normal" style="line-height:normal;text-indent:0;text-align:start;text-decoration-line:none;text-decoration-style:solid;text-decoration-color:#000;text-transform:none;block-progression:tb;isolation:auto;mix-blend-mode:normal"/></svg>