<?xml version="1.0" encoding="UTF-8" standalone="no"?>
<svg xmlns="http://www.w3.org/2000/svg" viewBox="0 0 24 24"><title>Edit User</title><g id="Edit_User" data-name="Edit User"><g id="_Group_" data-name="&lt;Group&gt;"><path id="_Path_" data-name="&lt;Path&gt;" d="M23.09,16.91,17,23l-2.5.5L15,21l6.09-6.08a1.41,1.41,0,0,1,1-.41h0a1.41,1.41,0,0,1,1.41,1.41h0A1.41,1.41,0,0,1,23.09,16.91Z" style="fill:none;stroke:#303c42;stroke-linecap:round;stroke-linejoin:round"/><line id="_Path_2" data-name="&lt;Path&gt;" x1="20" y1="16" x2="22" y2="18" style="fill:none;stroke:#303c42;stroke-linecap:round;stroke-linejoin:round"/></g><g id="_Group_2" data-name="&lt;Group&gt;"><circle id="_Path_3" data-name="&lt;Path&gt;" cx="11" cy="6" r="5.5" style="fill:none;stroke:#303c42;stroke-linecap:round;stroke-linejoin:round"/><path d="M19.91,16.09a4,4,0,0,0-.6-.39A18.74,18.74,0,0,0,11,13.5a18.74,18.74,0,0,0-8.31,2.2A4,4,0,0,0,.5,19.27V20A1.5,1.5,0,0,0,2,21.5H14.9" style="fill:none;stroke:#303c42;stroke-linecap:round;stroke-linejoin:round"/></g></g>
	<metadata>
		<rdf:RDF xmlns:rdf="http://www.w3.org/1999/02/22-rdf-syntax-ns#" xmlns:rdfs="http://www.w3.org/2000/01/rdf-schema#" xmlns:dc="http://purl.org/dc/elements/1.1/">
			<rdf:Description about="https://iconscout.com/legal#licenses" dc:title="action; people; user; edit; info" dc:description="action; people; user; edit; info" dc:publisher="Iconscout" dc:date="2017-02-16" dc:format="image/svg+xml" dc:language="en">
				<dc:creator>
					<rdf:Bag>
						<rdf:li>Alpár - Etele Méder</rdf:li>
					</rdf:Bag>
				</dc:creator>
			</rdf:Description>
		</rdf:RDF>
    </metadata></svg>
