<svg fill="#000000" xmlns="http://www.w3.org/2000/svg"  viewBox="0 0 50 50" width="500px" height="500px"><path d="M48.6,32H46v-1c0-0.6-0.4-1-1-1s-1,0.4-1,1v1h-8v-1c0-0.6-0.4-1-1-1s-1,0.4-1,1v1h-2.6c-0.8,0-1.4,0.6-1.4,1.4v15.3 c0,0.7,0.6,1.3,1.4,1.3h17.3c0.8,0,1.3-0.6,1.3-1.4V33.4C49.9,32.6,49.4,32,48.6,32z M34,34c0,0.6,0.4,1,1,1s1-0.4,1-1h8 c0,0.6,0.4,1,1,1s1-0.4,1-1h2v2H32v-2H34z M35,40h2v2h-2V40z M39,40h2v2h-2V40z M43,40h2v2h-2V40z M35,44h2v2h-2V44z M39,44h2v2h-2 V44z M43,44h2v2h-2V44z"/><path d="M30.952,7.823C30.1,6.414,28.8,5.527,27.083,5.185C26.117,3.965,24.301,3.3,21.879,3.3h-0.001	c-3.685,0.083-6.378,1.21-8.005,3.35c-1.926,2.533-2.287,6.416-1.076,11.546c-0.413,0.531-0.785,1.38-0.688,2.54	c0.296,2.159,1.116,3.05,1.785,3.415c0.308,1.749,1.156,3.676,2.007,4.597v3.561c-0.611,1.376-2.601,2.172-4.892,3.089	c-3.864,1.546-8.673,3.47-9.007,9.549L1.943,46H28V28.747c0.846-0.916,1.69-2.827,2.001-4.569c0.712-0.351,1.59-1.241,1.795-3.494	c0.095-1.126-0.215-1.954-0.641-2.487C32.004,15.468,32.749,10.794,30.952,7.823z M29.059,18.164l-0.316,0.824l0.793,0.396	c0.089,0.064,0.329,0.409,0.269,1.125C29.669,21.988,29.2,22.383,29.1,22.4H28.19l-0.086,0.905c-0.181,1.896-1.239,3.854-1.6,4.126	L26,27.719V32.5c-0.018,0.373-1.464,1.5-4,1.5c-2.489,0-4-1.042-4-1.5c0-0.152-0.039-0.292-0.1-0.421V28.3l0.02-0.568l-0.504-0.288	c-0.381-0.284-1.439-2.242-1.621-4.138l-0.012-0.896h-0.909c-0.143-0.056-0.59-0.53-0.778-1.894	c-0.069-0.838,0.359-1.185,0.358-1.185l0.59-0.392l-0.174-0.687c-1.213-4.783-1.012-8.28,0.596-10.395	c1.239-1.63,3.412-2.491,6.435-2.56c1.891,0,3.252,0.476,3.736,1.304l0.244,0.419L26.36,7.09c1.332,0.188,2.274,0.766,2.881,1.769	C30.689,11.254,29.926,15.735,29.059,18.164z"/></svg>