<svg fill="#000000" xmlns="http://www.w3.org/2000/svg"  viewBox="0 0 128 128" width="512px" height="512px"><path d="M92,47.1c1.7,0,3-1.3,3-3V4c0-1.7-1.3-3-3-3H11C9.3,1,8,2.3,8,4v105c0,1.7,1.3,3,3,3h37.7c1.7,0,3-1.3,3-3s-1.3-3-3-3H14V7 h75v37.1C89,45.8,90.3,47.1,92,47.1z"/><path d="M49.6,74c0-1.7-1.3-3-3-3H31c-1.7,0-3,1.3-3,3s1.3,3,3,3h15.6C48.2,77,49.6,75.7,49.6,74z"/><path d="M44,86H31c-1.7,0-3,1.3-3,3s1.3,3,3,3h13c1.7,0,3-1.3,3-3S45.7,86,44,86z"/><path d="M114.3,110.1c4.8-5.7,7.7-13.1,7.7-21.1c0-18.2-14.8-33-33-33S56,70.8,56,89s14.8,33,33,33c8,0,15.4-2.9,21.1-7.7 l11.8,11.8c0.6,0.6,1.4,0.9,2.1,0.9s1.5-0.3,2.1-0.9c1.2-1.2,1.2-3.1,0-4.2L114.3,110.1z M89,116c-14.9,0-27-12.1-27-27 s12.1-27,27-27s27,12.1,27,27S103.9,116,89,116z"/><path d="M64.5,29c0-7.2-5.8-13-13-13s-13,5.8-13,13s5.8,13,13,13S64.5,36.2,64.5,29z M44.5,29c0-3.9,3.1-7,7-7s7,3.1,7,7 s-3.1,7-7,7S44.5,32.9,44.5,29z"/><path d="M61,54.9c1.4,0.9,3.2,0.6,4.2-0.8c0.9-1.4,0.6-3.2-0.8-4.2c-3.8-2.6-8.3-4-12.9-4c-8.2,0-15.8,4.4-19.9,11.5 c-0.8,1.4-0.3,3.3,1.1,4.1c0.5,0.3,1,0.4,1.5,0.4c1,0,2-0.5,2.6-1.5c3-5.2,8.7-8.5,14.7-8.5C54.9,52,58.2,53,61,54.9z"/></svg>