<svg fill="#000000" xmlns="http://www.w3.org/2000/svg"  viewBox="0 0 80 80" width="480px" height="480px"><path fill="none" stroke="#000000" stroke-miterlimit="10" stroke-width="2" d="M23,7v8c0,0.552,0.448,1,1,1h2c0.552,0,1-0.448,1-1V7c0-0.552-0.448-1-1-1h-2C23.448,6,23,6.448,23,7z"/><path fill="none" stroke="#000000" stroke-miterlimit="10" stroke-width="2" d="M23 11h-8c-2.209 0-4 1.791-4 4v50c0 2.209 1.791 4 4 4h50c2.209 0 4-1.791 4-4V15c0-2.209-1.791-4-4-4h-8M53 11L27 11"/><path fill="none" stroke="#000000" stroke-miterlimit="10" stroke-width="2" d="M53 7v8c0 .552.448 1 1 1h2c.552 0 1-.448 1-1V7c0-.552-.448-1-1-1h-2C53.448 6 53 6.448 53 7zM69 23L11 23"/><path d="M24 62A1 1 0 1 0 24 64 1 1 0 1 0 24 62zM28 62A1 1 0 1 0 28 64 1 1 0 1 0 28 62zM32 62A1 1 0 1 0 32 64 1 1 0 1 0 32 62zM36 62A1 1 0 1 0 36 64 1 1 0 1 0 36 62zM40 62A1 1 0 1 0 40 64 1 1 0 1 0 40 62zM16 62A1 1 0 1 0 16 64 1 1 0 1 0 16 62zM20 62A1 1 0 1 0 20 64 1 1 0 1 0 20 62zM56 62A1 1 0 1 0 56 64 1 1 0 1 0 56 62zM60 62A1 1 0 1 0 60 64 1 1 0 1 0 60 62zM64 62A1 1 0 1 0 64 64 1 1 0 1 0 64 62zM48 62A1 1 0 1 0 48 64 1 1 0 1 0 48 62zM44 62A1 1 0 1 0 44 64 1 1 0 1 0 44 62zM52 62A1 1 0 1 0 52 64 1 1 0 1 0 52 62zM31.907 34.096c3.211 0 5.578 2.039 5.578 4.828 0 1.793-.867 3.258-3.703 6.129l-3.762 3.809v.199h7.734v2.355H26.364v-1.898l5.719-5.953c2.262-2.355 2.812-3.246 2.812-4.488 0-1.547-1.324-2.707-3.07-2.707-1.863 0-3.117 1.219-3.117 3.023v.035h-2.484v-.035C26.224 36.276 28.579 34.096 31.907 34.096zM43.092 48.323c-.691-1.359-1.031-3.082-1.031-5.145 0-5.73 2.473-9.082 6.703-9.082 2.988 0 5.25 1.781 5.766 4.547h-2.637c-.422-1.383-1.617-2.227-3.152-2.227-2.602 0-4.102 2.355-4.16 6.422h.199c.82-1.629 2.438-2.555 4.441-2.555 3.211 0 5.555 2.367 5.555 5.637 0 3.445-2.543 5.906-6.129 5.906C46.139 51.827 44.193 50.584 43.092 48.323zM52.174 46.002c0-2.051-1.465-3.504-3.539-3.504-2.062 0-3.562 1.453-3.562 3.457 0 2.016 1.535 3.562 3.551 3.562S52.174 47.995 52.174 46.002z"/></svg>