<svg fill="#000000" xmlns="http://www.w3.org/2000/svg"  viewBox="0 0 64 64" width="512px" height="512px"><path d="M51,44h-4c-0.552,0-1,0.448-1,1s0.448,1,1,1h4c0.552,0,1-0.448,1-1S51.552,44,51,44z"/><path d="M59,18h-3v-1c0-1.654-1.346-3-3-3H27.708c-0.795,0-1.545-0.308-2.11-0.868l-3.725-3.687C20.93,8.514,19.681,8,18.355,8H3c-1.654,0-3,1.346-3,3v41c0,2.206,1.794,4,4,4h53h1c2.206,0,4-1.794,4-4V21C62,19.346,60.654,18,59,18z M4,54c-1.103,0-2-0.897-2-2v-6h41c0.552,0,1-0.448,1-1s-0.448-1-1-1H2V11c0-0.551,0.449-1,1-1h15.355c0.795,0,1.545,0.308,2.11,0.868l3.725,3.687C25.133,15.486,26.382,16,27.708,16H53c0.551,0,1,0.449,1,1v35c0,0.617,0.223,1.34,0.633,2H4z M60,52c0,1.103-0.897,2-2,2c-1.245,0-2-1.389-2-2V20h3c0.551,0,1,0.449,1,1V52z"/><path d="M5 48c-.552 0-1 .448-1 1v2c0 .552.448 1 1 1s1-.448 1-1v-2C6 48.448 5.552 48 5 48zM10 48c-.552 0-1 .448-1 1v2c0 .552.448 1 1 1s1-.448 1-1v-2C11 48.448 10.552 48 10 48zM15 48c-.552 0-1 .448-1 1v2c0 .552.448 1 1 1s1-.448 1-1v-2C16 48.448 15.552 48 15 48zM20 48c-.552 0-1 .448-1 1v2c0 .552.448 1 1 1s1-.448 1-1v-2C21 48.448 20.552 48 20 48zM25 48c-.552 0-1 .448-1 1v2c0 .552.448 1 1 1s1-.448 1-1v-2C26 48.448 25.552 48 25 48zM30 48c-.552 0-1 .448-1 1v2c0 .552.448 1 1 1s1-.448 1-1v-2C31 48.448 30.552 48 30 48zM35 48c-.552 0-1 .448-1 1v2c0 .552.448 1 1 1s1-.448 1-1v-2C36 48.448 35.552 48 35 48zM40 48c-.552 0-1 .448-1 1v2c0 .552.448 1 1 1s1-.448 1-1v-2C41 48.448 40.552 48 40 48zM45 48c-.552 0-1 .448-1 1v2c0 .552.448 1 1 1s1-.448 1-1v-2C46 48.448 45.552 48 45 48zM50 48c-.552 0-1 .448-1 1v2c0 .552.448 1 1 1s1-.448 1-1v-2C51 48.448 50.552 48 50 48zM31.2 31.693c.501-.779.8-1.7.8-2.693v-2c0-2.757-2.243-5-5-5s-5 2.243-5 5v2c0 .993.299 1.914.8 2.693-2.743 1.193-4.916 3.835-5.518 7.074-.101.543.257 1.065.8 1.166.544.1 1.065-.258 1.166-.8.538-2.889 2.614-5.186 5.123-5.899C25.137 33.712 26.033 34 27 34s1.863-.288 2.629-.766c2.509.713 4.586 3.011 5.123 5.901.089.481.509.817.982.817.061 0 .122-.005.184-.017.543-.101.901-.623.8-1.166C36.116 35.529 33.943 32.886 31.2 31.693zM30 29c0 1.654-1.346 3-3 3s-3-1.346-3-3v-2c0-1.654 1.346-3 3-3s3 1.346 3 3V29z"/></svg>