<svg fill="#000000" xmlns="http://www.w3.org/2000/svg"  viewBox="0 0 26 26" width="208px" height="208px"><path fill="none" stroke="#000000" stroke-linecap="round" stroke-linejoin="round" stroke-miterlimit="10" stroke-width="2" d="M3.28,17.154C2.463,15.617,2,13.863,2,12C2,5.925,6.925,1,13,1s11,4.925,11,11c0,2.278-0.692,4.395-1.879,6.15"/><path fill="none" stroke="#000000" stroke-linecap="round" stroke-linejoin="round" stroke-miterlimit="10" stroke-width="1.644" d="M4.722 14.979L4.71 19.279 1 16.887 3.366 16.713z"/><path d="M15.6,18.654c-0.117-0.037-0.85-0.368-0.393-1.761h-0.006c1.193-1.229,2.106-3.208,2.106-5.156 c0-2.996-1.992-4.565-4.307-4.565c-2.316,0-4.297,1.57-4.297,4.565c0,1.956,0.907,3.943,2.108,5.168 c0.468,1.229-0.369,1.684-0.544,1.748C7.844,19.531,5,21.13,5,22.707c0,0.426,0,0.168,0,0.591c0,2.149,4.167,2.638,8.023,2.638 c3.862,0,7.977-0.488,7.977-2.638c0-0.423,0-0.165,0-0.591C21,21.082,18.143,19.496,15.6,18.654z"/></svg>