<?xml version="1.0" encoding="utf-8"?>
<svg xmlns="http://www.w3.org/2000/svg" xmlns:xlink="http://www.w3.org/1999/xlink" version="1.1" id="Layer_1" x="0px" y="0px" viewBox="0 0 24 24" style="enable-background:new 0 0 24 24;" xml:space="preserve">
<style type="text/css">
	.st0{fill:none;stroke:#303C42;stroke-linecap:round;stroke-linejoin:round;}
</style>
<title>Contact Info</title>
<g id="Contact_Info">
	<g id="_Group_">
		<g id="_Group_2">
			<path id="_Path_" class="st0" d="M22.5,6.5V21c0,0.8-0.7,1.5-1.5,1.5H3c-0.8,0-1.5-0.7-1.5-1.5V3c0-0.8,0.7-1.5,1.5-1.5h14.5     L22.5,6.5z" style="fill: none; stroke: #303C42; stroke-linecap: round; stroke-linejoin: round;"/>
			<path id="_Path_2" class="st0" d="M17.5,1.5V5c0,0.8,0.7,1.5,1.5,1.5h3.5" style="fill: none; stroke: #303C42; stroke-linecap: round; stroke-linejoin: round;"/>
		</g>
		<circle id="_Path_3" class="st0" cx="12" cy="8.5" r="3" style="fill: none; stroke: #303C42; stroke-linecap: round; stroke-linejoin: round;"/>
		<path id="_Path_4" class="st0" d="M12,13.5c-1.8,0-3.6,0.5-5.1,1.4c-0.8,0.4-1.4,1.3-1.4,2.2v0.5c0,0.5,0.4,0.9,0.9,0.9    c0,0,0,0,0,0h11.1c0.5,0,0.9-0.4,0.9-0.9c0,0,0,0,0,0v-0.5c0-0.9-0.5-1.8-1.4-2.2C15.6,14,13.8,13.6,12,13.5z" style="fill: none; stroke: #303C42; stroke-linecap: round; stroke-linejoin: round;"/>
	</g>
</g>

	<metadata>
		<rdf:RDF xmlns:rdf="http://www.w3.org/1999/02/22-rdf-syntax-ns#" xmlns:rdfs="http://www.w3.org/2000/01/rdf-schema#" xmlns:dc="http://purl.org/dc/elements/1.1/">
			<rdf:Description about="https://iconscout.com/legal#licenses" dc:title="contact; paper; info; person; user; business" dc:description="contact; paper; info; person; user; business" dc:publisher="Iconscout" dc:date="2017-02-16" dc:format="image/svg+xml" dc:language="en">
				<dc:creator>
					<rdf:Bag>
						<rdf:li>Alpár - Etele Méder</rdf:li>
					</rdf:Bag>
				</dc:creator>
			</rdf:Description>
		</rdf:RDF>
    </metadata></svg>
