<?xml version="1.0" encoding="UTF-8"?>
<svg xmlns="http://www.w3.org/2000/svg" xmlns:xlink="http://www.w3.org/1999/xlink" version="1.1" id="Layer_1" x="0px" y="0px" viewBox="0 0 24 24" style="enable-background:new 0 0 24 24;" xml:space="preserve">
<g>
	<path style="fill:#303C42;" d="M20.5,14c-0.789,0-1.511,0.273-2.097,0.715C16.59,13.906,13.918,13,11,13   c-3.427,0-6.535,1.226-8.539,2.255C0.943,16.034,0,17.572,0,19.268V20c0,1.103,0.897,2,2,2h12v1.5c0,0.276,0.224,0.5,0.5,0.5H16   c0.133,0,0.26-0.053,0.354-0.146l3.038-3.038C19.752,20.938,20.124,21,20.5,21c1.93,0,3.5-1.57,3.5-3.5S22.43,14,20.5,14z"/>
	<path style="fill:#1E88E5;" d="M2,21c-0.551,0-1-0.449-1-1v-0.732c0-1.319,0.735-2.516,1.918-3.124C4.824,15.166,7.773,14,11,14   c2.565,0,4.947,0.752,6.654,1.478C17.246,16.05,17,16.745,17,17.5c0,0.376,0.062,0.748,0.185,1.108L14.793,21H2z"/>
	<path style="fill:#FFCA28;" d="M20.5,20c-0.349,0-0.694-0.076-1.025-0.225c-0.188-0.085-0.412-0.045-0.559,0.102L15.793,23H15   v-0.793l3.123-3.123c0.147-0.147,0.188-0.37,0.102-0.559C18.076,18.194,18,17.849,18,17.5c0-1.378,1.122-2.5,2.5-2.5   s2.5,1.122,2.5,2.5S21.878,20,20.5,20z"/>
	<path style="opacity:0.1;" d="M20.5,19.5c-0.349,0-0.694-0.076-1.025-0.225c-0.188-0.085-0.412-0.045-0.559,0.102L15.793,22.5H15   V23h0.793l3.123-3.123c0.147-0.147,0.372-0.187,0.559-0.102C19.806,19.924,20.151,20,20.5,20c1.378,0,2.5-1.122,2.5-2.5   c0-0.086-0.017-0.167-0.025-0.25C22.847,18.51,21.793,19.5,20.5,19.5z"/>
	<path style="fill:#303C42;" d="M21,15.98c-0.551,0-1,0.449-1,1s0.449,1,1,1s1-0.449,1-1S21.551,15.98,21,15.98z"/>
	<circle style="fill:#303C42;" cx="11" cy="6" r="6"/>
	<circle style="fill:#1E88E5;" cx="11" cy="6" r="5"/>
	<circle style="fill:#1E88E5;" cx="11" cy="6" r="5"/>
	<path style="opacity:0.2;fill:#FFFFFF;" d="M7,7c0-2.757,2.243-5,5-5c1.123,0,2.15,0.386,2.986,1.014C14.073,1.799,12.633,1,11,1   C8.243,1,6,3.243,6,6c0,1.633,0.799,3.073,2.014,3.986C7.386,9.15,7,8.123,7,7z"/>
	<path style="opacity:0.2;fill:#FFFFFF;" d="M3.918,17.145C5.824,16.166,8.772,15,12,15c1.945,0,3.784,0.426,5.359,0.977   c0.086-0.174,0.182-0.342,0.294-0.499C15.947,14.752,13.565,14,11,14c-3.227,0-6.176,1.166-8.082,2.145   C1.735,16.752,1,17.949,1,19.268V20c0,0.551,0.449,1,1,1v-0.732C2,18.949,2.735,17.752,3.918,17.145z"/>
	<linearGradient id="SVGID_1_" gradientUnits="userSpaceOnUse" x1="2.9227" y1="9.1252" x2="23.7401" y2="18.8326">
		<stop offset="0" style="stop-color:#FFFFFF;stop-opacity:0.2"/>
		<stop offset="1" style="stop-color:#FFFFFF;stop-opacity:0"/>
	</linearGradient>
	<path style="fill:url(#SVGID_1_);" d="M11,12c3.309,0,6-2.691,6-6s-2.691-6-6-6S5,2.691,5,6S7.691,12,11,12z M20.5,14   c-0.789,0-1.511,0.273-2.097,0.715C16.59,13.906,13.918,13,11,13c-3.427,0-6.535,1.226-8.539,2.255C0.943,16.034,0,17.572,0,19.268   V20c0,1.103,0.897,2,2,2h12v1.5c0,0.276,0.224,0.5,0.5,0.5H16c0.133,0,0.26-0.053,0.354-0.146l3.038-3.038   C19.752,20.938,20.124,21,20.5,21c1.93,0,3.5-1.57,3.5-3.5S22.43,14,20.5,14z"/>
</g>
<g>
</g>
<g>
</g>
<g>
</g>
<g>
</g>
<g>
</g>
<g>
</g>
<g>
</g>
<g>
</g>
<g>
</g>
<g>
</g>
<g>
</g>
<g>
</g>
<g>
</g>
<g>
</g>
<g>
</g>

	<metadata>
		<rdf:RDF xmlns:rdf="http://www.w3.org/1999/02/22-rdf-syntax-ns#" xmlns:rdfs="http://www.w3.org/2000/01/rdf-schema#" xmlns:dc="http://purl.org/dc/elements/1.1/">
			<rdf:Description about="https://iconscout.com/legal#licenses" dc:title="action; people; user; access; key" dc:description="action; people; user; access; key" dc:publisher="Iconscout" dc:date="2017-03-22" dc:format="image/svg+xml" dc:language="en">
				<dc:creator>
					<rdf:Bag>
						<rdf:li>Alpár - Etele Méder</rdf:li>
					</rdf:Bag>
				</dc:creator>
			</rdf:Description>
		</rdf:RDF>
    </metadata></svg>
