<svg xmlns="http://www.w3.org/2000/svg" data-name="Layer 1" viewBox="0 0 512 512"><path d="M363.5,140h-161a7.5,7.5,0,0,0,0,15h161a7.5,7.5,0,0,0,0-15Zm-45,45h-116a7.5,7.5,0,0,0,0,15h116a7.5,7.5,0,0,0,0-15ZM195,102.5a7.5,7.5,0,0,0,7.5,7.5h161a7.5,7.5,0,0,0,0-15h-161A7.5,7.5,0,0,0,195,102.5ZM183.5,365h-41a7.5,7.5,0,0,0,0,15h41a7.5,7.5,0,0,0,0-15Zm-1.59-135.5v-29a15.51,15.51,0,0,0-15.5-15.5h-40a15.52,15.52,0,0,0-15.5,15.5v29a15.52,15.52,0,0,0,15.5,15.5h40A15.51,15.51,0,0,0,181.91,229.5Zm-56,0v-29a.5.5,0,0,1,.5-.5h40a.5.5,0,0,1,.5.5v29a.5.5,0,0,1-.5.5h-40A.5.5,0,0,1,125.91,229.5ZM505.41,96.61,494.8,86A22.53,22.53,0,0,0,463,86l-53,53V37.5A37.54,37.54,0,0,0,372.5,0h-269A37.54,37.54,0,0,0,66,37.5V427H35.5A17.52,17.52,0,0,0,18,444.5v30A37.54,37.54,0,0,0,55.5,512h318c.21,0,.43,0,.64,0A37.54,37.54,0,0,0,410,474.5V223.84l72.53-72.53h0l22.86-22.86A22.53,22.53,0,0,0,505.41,96.61ZM55.5,497A22.52,22.52,0,0,1,33,474.5v-30a2.5,2.5,0,0,1,2.5-2.5h294a2.5,2.5,0,0,1,2.5,2.5V473a38.78,38.78,0,0,0,8.28,24ZM395,434.45V473a24,24,0,0,1-48,0V444.5A17.52,17.52,0,0,0,329.5,427H81V37.5A22.52,22.52,0,0,1,103.5,15h269A22.52,22.52,0,0,1,395,37.5V154l-76,76H202.5a7.5,7.5,0,0,0,0,15H304l-30,30H142.5a7.5,7.5,0,0,0,0,15H259l-29.35,29.35a7.88,7.88,0,0,0-.55.62l0,0H142.5a7.5,7.5,0,0,0,0,15h81.09l-11.67,35a7.5,7.5,0,0,0,7.11,9.88,7.4,7.4,0,0,0,2.37-.39l47.73-15.91.14,0,.55-.22.22-.11a5.21,5.21,0,0,0,.52-.28l.21-.12.5-.35.18-.13a6.31,6.31,0,0,0,.61-.55L298.84,335H333.5a7.5,7.5,0,0,0,0-15H313.84L395,238.84ZM238.22,338.54l14.66,14.66-22,7.33Zm28.54,7.33-21.21-21.21,36.83-36.83.05-.05,45-45h0l80.42-80.42,37.6-37.6L466.63,146Zm228-228-17.56,17.56L456,114.18l17.56-17.57a7.52,7.52,0,0,1,10.61,0l10.6,10.61A7.5,7.5,0,0,1,494.8,117.83ZM183,60H329a7.5,7.5,0,0,0,0-15H183a7.5,7.5,0,0,0,0,15Zm-56.59,95h40a15.51,15.51,0,0,0,15.5-15.5v-29A15.51,15.51,0,0,0,166.41,95h-40a15.52,15.52,0,0,0-15.5,15.5v29A15.52,15.52,0,0,0,126.41,155Zm-.5-44.5a.5.5,0,0,1,.5-.5h40a.5.5,0,0,1,.5.5v29a.5.5,0,0,1-.5.5h-40a.5.5,0,0,1-.5-.5Z"/></svg>