<?xml version="1.0" encoding="UTF-8" standalone="no"?>
<svg xmlns:dc="http://purl.org/dc/elements/1.1/" xmlns:cc="http://creativecommons.org/ns#" xmlns:rdf="http://www.w3.org/1999/02/22-rdf-syntax-ns#" xmlns:svg="http://www.w3.org/2000/svg" xmlns="http://www.w3.org/2000/svg" xmlns:sodipodi="http://sodipodi.sourceforge.net/DTD/sodipodi-0.dtd" xmlns:inkscape="http://www.inkscape.org/namespaces/inkscape" width="48" height="48" viewBox="0 0 48 48.000001" id="svg2" version="1.1" inkscape:version="0.91 r13725" sodipodi:docname="report-student-grade-correct-paper-exam-result.svg">
  <defs id="defs4">
    <pattern y="0" x="0" height="6" width="6" patternUnits="userSpaceOnUse" id="EMFhbasepattern"/>
  </defs>
  <sodipodi:namedview id="base" pagecolor="#ffffff" bordercolor="#666666" borderopacity="1.0" inkscape:pageopacity="0.0" inkscape:pageshadow="2" inkscape:zoom="11.2" inkscape:cx="10.843125" inkscape:cy="30.230808" inkscape:document-units="px" inkscape:current-layer="layer1" showgrid="false" units="px" inkscape:window-width="1366" inkscape:window-height="716" inkscape:window-x="-8" inkscape:window-y="-8" inkscape:window-maximized="1"/>
  
  <g inkscape:label="Layer 1" inkscape:groupmode="layer" id="layer1" transform="translate(0,-1004.3622)">
    <g style="display:inline" id="g20674" transform="translate(-2807.5183,-337.9997)">
      <path inkscape:connector-curvature="0" id="path20664" d="m 2855.5183,1366.3619 a 24,24 0 0 0 -24,-24 24,24 0 0 0 -24,24 24,24 0 0 0 24,24 24,24 0 0 0 24,-24 z" style="opacity:1;fill:#e81e63;fill-opacity:1;stroke:none;stroke-width:0.26458335;stroke-linecap:round;stroke-linejoin:round;stroke-miterlimit:4;stroke-dasharray:none;stroke-dashoffset:0;stroke-opacity:1"/>
      <g id="g20672" transform="translate(245.7683,740.7497)" style="display:inline;fill:#ffffff">
        <g id="g20670" style="display:inline;fill:#ffffff" transform="translate(837.5,-0.25)">
          <path id="path20666" transform="translate(-837.5,1020.6122)" d="m 2574.75,-407.75 0,26 22,0 0,-19 -6,0 0,-7 z m 3.2148,9.5 a 0.50004991,0.50004991 0 0 1 0.051,0 l 2.7364,0 a 0.50004991,0.50004991 0 1 1 0,1 l -2.7364,0 a 0.50064983,0.50064983 0 0 1 -0.051,-1 z m 4.5,0 a 0.50004994,0.50004994 0 0 1 0.051,0 l 0.9864,0 a 0.50004994,0.50004994 0 1 1 0,1 l -0.9864,0 a 0.50064983,0.50064983 0 0 1 -0.051,-1 z m 2.75,0 a 0.50004997,0.50004997 0 0 1 0.051,0 l 5.7422,0 a 0.50004997,0.50004997 0 1 1 0,1 l -5.7422,0 a 0.50064983,0.50064983 0 0 1 -0.051,-1 z m -7.25,3.5 a 0.50004997,0.50004997 0 0 1 0.051,0 l 7.7364,0 a 0.50004997,0.50004997 0 1 1 0,1 l -7.7364,0 a 0.50064983,0.50064983 0 0 1 -0.051,-1 z m 9.5,0 a 0.50004994,0.50004994 0 0 1 0.051,0 l 1.9864,0 a 0.50004994,0.50004994 0 1 1 0,1 l -1.9864,0 a 0.50064983,0.50064983 0 0 1 -0.051,-1 z m 3.4922,0 a 0.50004994,0.50004994 0 0 1 0.051,0 l 0.2578,0 a 0.50004994,0.50004994 0 1 1 0,1 l -0.2578,0 a 0.50064983,0.50064983 0 0 1 -0.051,-1 z m -12.7363,3.5 a 0.50005,0.50005 0 0 1 0.051,0 l 0.9863,0 a 0.50005,0.50005 0 1 1 0,1 l -0.9863,0 a 0.50064983,0.50064983 0 0 1 -0.051,-1 z m 2.752,0 a 0.50004994,0.50004994 0 0 1 0.051,0 l 3.7422,0 a 0.50004994,0.50004994 0 1 1 0,1 l -3.7422,0 a 0.50064983,0.50064983 0 0 1 -0.051,-1 z m 12.4921,1 a 0.50004955,0.50004955 0 0 1 0.051,0 0.50004955,0.50004955 0 0 1 0.3242,0.875 l -5.4902,4.99414 a 0.50004955,0.50004955 0 0 1 -0.709,-0.0371 l -2.0019,-2.25 a 0.50016062,0.50016062 0 1 1 0.748,-0.66406 l 1.6641,1.87305 5.1152,-4.65625 a 0.50004955,0.50004955 0 0 1 0.2988,-0.13477 z m -15.2441,2.5 a 0.50004991,0.50004991 0 0 1 0.051,0 l 3.4941,0 a 0.50004991,0.50004991 0 1 1 0,1 l -3.4941,0 a 0.50064983,0.50064983 0 0 1 -0.051,-1 z m 5.2578,0 a 0.50004994,0.50004994 0 0 1 0.051,0 l 0.2559,0 a 0.50004994,0.50004994 0 1 1 0,1 l -0.2559,0 a 0.50064983,0.50064983 0 0 1 -0.051,-1 z" style="fill:#ffffff;fill-rule:evenodd;stroke:none;stroke-width:0.99999994;stroke-linecap:round;stroke-linejoin:miter;stroke-miterlimit:4;stroke-dasharray:none;stroke-opacity:1" inkscape:connector-curvature="0"/>
          <path style="fill:#ffffff;fill-rule:evenodd;stroke:none;stroke-width:0.99999994;stroke-linecap:round;stroke-linejoin:miter;stroke-miterlimit:4;stroke-dasharray:none;stroke-opacity:1" d="m 1754.25,613.454 0,5.4082 4.5762,0 z" id="path20668" inkscape:connector-curvature="0"/>
        </g>
      </g>
    </g>
  </g>

	<metadata>
		<rdf:RDF xmlns:rdf="http://www.w3.org/1999/02/22-rdf-syntax-ns#" xmlns:rdfs="http://www.w3.org/2000/01/rdf-schema#" xmlns:dc="http://purl.org/dc/elements/1.1/">
			<rdf:Description about="https://iconscout.com/legal#licenses" dc:title="report-student-grade-correct-paper-exam-result" dc:description="report-student-grade-correct-paper-exam-result" dc:publisher="Iconscout" dc:date="2017-04-26" dc:format="image/svg+xml" dc:language="en">
				<dc:creator>
					<rdf:Bag>
						<rdf:li>Vignesh Oviyan</rdf:li>
					</rdf:Bag>
				</dc:creator>
			</rdf:Description>
		</rdf:RDF>
    </metadata></svg>
