<svg xmlns="http://www.w3.org/2000/svg" width="32" height="32" viewBox="0 0 32 32"><g transform="translate(240.998 -959.362)"><path fill="#cad1d8" d="m -226.15039,961.3622 a 1.0131715,1.0131715 0 0 0 -0.97461,0.8691 l -0.19727,1.3711 a 11.99818,11.99818 0 0 0 -4.34961,1.8008 l -1.10742,-0.8301 a 1.0131795,1.0131795 0 0 0 -1.32422,0.096 l -1.58593,1.586 a 1.0131576,1.0131576 0 0 0 -0.0957,1.3242 l 0.82618,1.1035 a 11.99818,11.99818 0 0 0 -1.8086,4.3574 l -1.36133,0.1954 a 1.0131761,1.0131761 0 0 0 -0.86914,1.0036 l 0,2.2441 a 1.0131608,1.0131608 0 0 0 0.86914,1.002 l 1.36914,0.1972 a 11.99818,11.99818 0 0 0 1.80274,4.3535 l -0.83008,1.1075 a 1.0131679,1.0131679 0 0 0 0.0957,1.3242 l 1.58594,1.5859 a 1.0131679,1.0131679 0 0 0 1.32422,0.096 l 1.10352,-0.8262 a 11.99818,11.99818 0 0 0 4.35742,1.8086 l 0.19531,1.3614 a 1.0131715,1.0131715 0 0 0 1.00391,0.8691 l 2.24414,0 a 1.0131619,1.0131619 0 0 0 1.00195,-0.8691 l 0.19727,-1.3692 a 11.99818,11.99818 0 0 0 4.35546,-1.8047 l 1.00391,0.752 a 1.1626999,1.1626999 0 0 0 1.51953,-0.1094 l 1.49414,-1.4941 a 1.0131705,1.0131705 0 0 0 0.0957,-1.3242 l -0.82617,-1.1036 a 11.99818,11.99818 0 0 0 1.80664,-4.3574 l 1.23242,-0.1777 a 1.1626924,1.1626924 0 0 0 0.99805,-1.1524 l 0,-2.1132 a 1.0131761,1.0131761 0 0 0 -0.86914,-1.0039 l -1.37109,-0.1973 a 11.99818,11.99818 0 0 0 -1.80274,-4.3516 l 0.75196,-1.0039 a 1.1626892,1.1626892 0 0 0 -0.10938,-1.5195 l -1.49414,-1.4942 a 1.0131777,1.0131777 0 0 0 -1.32422,-0.096 l -1.10351,0.8262 a 11.99818,11.99818 0 0 0 -4.35938,-1.8066 l -0.17773,-1.2324 a 1.1626937,1.1626937 0 0 0 -1.15039,-0.9981 l -2.11328,0 a 1.0131715,1.0131715 0 0 0 -0.0293,0 z"/><circle cx="-224.998" cy="975.362" r="9.998" fill="#576d7e"/><circle cx="-224.998" cy="975.362" r="8" fill="#cad1d8"/><circle cx="-224.998" cy="975.362" r="5.998" fill="#e9eded"/></g></svg>