<?xml version="1.0" encoding="UTF-8" standalone="no"?>
<svg xmlns="http://www.w3.org/2000/svg" viewBox="0 0 24 24"><title>Attention 3</title><g id="Attention_3" data-name="Attention 3"><line x1="12" y1="15.5" x2="12" y2="5.5" style="fill:none;stroke:#303c42;stroke-linecap:round;stroke-linejoin:round"/><circle cx="12" cy="18.5" r="0.5" style="fill:#303c42"/><path id="_Path_" data-name="&lt;Path&gt;" d="M1.09,6.91,6.91,1.09A2,2,0,0,1,8.33.5h7.34a2,2,0,0,1,1.41.59l5.83,5.83a2,2,0,0,1,.59,1.41v7.34a2,2,0,0,1-.59,1.41l-5.83,5.83a2,2,0,0,1-1.41.59H8.33a2,2,0,0,1-1.41-.59L1.09,17.09A2,2,0,0,1,.5,15.67V8.33A2,2,0,0,1,1.09,6.91Z" style="fill:none;stroke:#303c42;stroke-linecap:round;stroke-linejoin:round"/></g>
	<metadata>
		<rdf:RDF xmlns:rdf="http://www.w3.org/1999/02/22-rdf-syntax-ns#" xmlns:rdfs="http://www.w3.org/2000/01/rdf-schema#" xmlns:dc="http://purl.org/dc/elements/1.1/">
			<rdf:Description about="https://iconscout.com/legal#licenses" dc:title="ui; interface; user; user interface; attention; 2" dc:description="ui; interface; user; user interface; attention; 2" dc:publisher="Iconscout" dc:date="2017-02-16" dc:format="image/svg+xml" dc:language="en">
				<dc:creator>
					<rdf:Bag>
						<rdf:li>Alpár - Etele Méder</rdf:li>
					</rdf:Bag>
				</dc:creator>
			</rdf:Description>
		</rdf:RDF>
    </metadata></svg>
