<svg xmlns="http://www.w3.org/2000/svg" width="32" height="32" viewBox="0 0 32 32"><g transform="translate(230.516 -1360.332)"><g transform="translate(18.49 -.493)"><path style="isolation:auto;mix-blend-mode:normal" fill="#406b95" fill-rule="evenodd" d="m -247.00044,1386.8389 0,-4.515 c 0,-3.8939 3.12214,-7.0288 7.00032,-7.0288 l 6.00023,0 c 3.87818,0 7.00033,3.1349 7.00033,7.0288 l 0,4.515 z" color="#000" overflow="visible"/><ellipse cx="-237.02" cy="1368.295" fill="#406b95" fill-rule="evenodd" color="#000" overflow="visible" rx="4.98" ry="5" style="isolation:auto;mix-blend-mode:normal"/><path fill="none" stroke="#0c5286" stroke-linejoin="round" d="M-243.00027 1382.3167l0 4.5384M-230.99974 1382.3167l0 4.5384"/></g><path style="isolation:auto;mix-blend-mode:normal" fill="#f9b537" d="m -210.59097,1377.8622 0,1.2209 a 4.9090889,4.9090888 0 0 0 -1.52127,0.6243 l -0.85866,-0.8587 -1.54265,1.5427 0.86083,0.8608 a 4.9090889,4.9090888 0 0 0 -0.62858,1.5191 l -1.21876,0 0,2.1818 1.22084,0 a 4.9090889,4.9090888 0 0 0 0.62432,1.5213 l -0.85865,0.8587 1.54265,1.5427 0.86073,-0.8609 a 4.9090889,4.9090888 0 0 0 1.5192,0.6285 l 0,1.2188 2.18182,0 0,-1.2208 a 4.9090889,4.9090888 0 0 0 1.52127,-0.6243 l 0.85866,0.8587 1.54265,-1.5427 -0.86083,-0.8608 a 4.9090889,4.9090888 0 0 0 0.62858,-1.5192 l 1.21876,0 0,-2.1818 -1.22084,0 a 4.9090889,4.9090888 0 0 0 -0.62432,-1.5212 l 0.85865,-0.8587 -1.54265,-1.5427 -0.86073,0.8609 a 4.9090889,4.9090888 0 0 0 -1.5192,-0.6286 l 0,-1.2188 -2.18182,0 z" color="#000" overflow="visible"/><path style="isolation:auto;mix-blend-mode:normal" fill="#ee7581" d="m -205.39591,1368.5911 0,0.8393 a 3.3750124,3.375012 0 0 0 -1.04587,0.4292 l -0.59033,-0.5903 -1.06058,1.0606 0.59183,0.5918 a 3.3750124,3.375012 0 0 0 -0.43216,1.0444 l -0.8379,0 0,1.5 0.83933,0 a 3.3750124,3.375012 0 0 0 0.42923,1.0459 l -0.59033,0.5903 1.06058,1.0606 0.59175,-0.5918 a 3.3750124,3.375012 0 0 0 1.04445,0.4321 l 0,0.8379 1.50001,0 0,-0.8393 a 3.3750124,3.375012 0 0 0 1.04588,-0.4292 l 0.59033,0.5903 1.06058,-1.0606 -0.59183,-0.5917 a 3.3750124,3.375012 0 0 0 0.43215,-1.0445 l 0.8379,0 0,-1.5 -0.83932,0 a 3.3750124,3.375012 0 0 0 -0.42923,-1.0459 l 0.59033,-0.5903 -1.06058,-1.0606 -0.59176,0.5919 a 3.3750124,3.375012 0 0 0 -1.04445,-0.4322 l 0,-0.8379 -1.50001,0 z" color="#000" overflow="visible"/><path color="#000" style="line-height:normal;text-indent:0;text-align:start;text-decoration-line:none;text-decoration-style:solid;text-decoration-color:#000;text-transform:none;block-progression:tb;isolation:auto;mix-blend-mode:normal" fill="#f0f4f7" stroke="#0c5286" stroke-linecap="round" stroke-linejoin="round" d="M-204.6459 1371.57c-.62983 0-1.14584.516-1.14584 1.1459 0 .6298.51601 1.1463 1.14584 1.1463.62982 0 1.14584-.5165 1.14584-1.1463 0-.6299-.51602-1.1459-1.14584-1.1459zM-209.50006 1381.8622c-1.09905 0-1.9995.9003-1.9995 1.9995 0 1.099.90045 2.0005 1.9995 2.0005 1.09905 0 1.9995-.9015 1.9995-2.0005 0-1.0992-.90045-1.9995-1.9995-1.9995z" font-family="sans-serif" font-weight="400" overflow="visible" white-space="normal"/></g></svg>