<?xml version="1.0" encoding="UTF-8" standalone="no"?>
<svg xmlns="http://www.w3.org/2000/svg" viewBox="0 0 24 24"><title>User Key</title><g id="User_Key" data-name="User Key"><circle id="_Path_" data-name="&lt;Path&gt;" cx="21" cy="16.98" r="0.5" style="fill:none;stroke:#303c42;stroke-linecap:round;stroke-linejoin:round"/><path id="_Path_2" data-name="&lt;Path&gt;" d="M20.5,14.5a3,3,0,0,0-2.73,4.23L14.5,22v1.5H16l3.27-3.27A3,3,0,1,0,20.5,14.5Z" style="fill:none;stroke:#303c42;stroke-linecap:round;stroke-linejoin:round"/><g id="_Group_" data-name="&lt;Group&gt;"><circle id="_Path_3" data-name="&lt;Path&gt;" cx="11" cy="6" r="5.5" style="fill:none;stroke:#303c42;stroke-linecap:round;stroke-linejoin:round"/><path d="M18.46,15.29A18.16,18.16,0,0,0,11,13.5a18.74,18.74,0,0,0-8.31,2.2A4,4,0,0,0,.5,19.27V20A1.5,1.5,0,0,0,2,21.5H15" style="fill:none;stroke:#303c42;stroke-linecap:round;stroke-linejoin:round"/></g></g>
	<metadata>
		<rdf:RDF xmlns:rdf="http://www.w3.org/1999/02/22-rdf-syntax-ns#" xmlns:rdfs="http://www.w3.org/2000/01/rdf-schema#" xmlns:dc="http://purl.org/dc/elements/1.1/">
			<rdf:Description about="https://iconscout.com/legal#licenses" dc:title="action; people; user; access; key" dc:description="action; people; user; access; key" dc:publisher="Iconscout" dc:date="2017-02-16" dc:format="image/svg+xml" dc:language="en">
				<dc:creator>
					<rdf:Bag>
						<rdf:li>Alpár - Etele Méder</rdf:li>
					</rdf:Bag>
				</dc:creator>
			</rdf:Description>
		</rdf:RDF>
    </metadata></svg>
