<?xml version="1.0" encoding="utf-8"?>
<svg xmlns="http://www.w3.org/2000/svg" xmlns:xlink="http://www.w3.org/1999/xlink" version="1.1" id="Layer_1" x="0px" y="0px" viewBox="0 0 24 24" style="enable-background:new 0 0 24 24;" xml:space="preserve">
<style type="text/css">
	.st0{fill:none;stroke:#303C42;stroke-linecap:round;stroke-linejoin:round;}
</style>
<title>Medical Case</title>
<g id="Medical_Case">
	<g id="_Group_">
		<path id="_Rectangle_" class="st0" d="M2,5.5h20c0.8,0,1.5,0.7,1.5,1.5v13c0,0.8-0.7,1.5-1.5,1.5H2c-0.8,0-1.5-0.7-1.5-1.5V7    C0.5,6.2,1.2,5.5,2,5.5z" style="fill: none; stroke: #303C42; stroke-linecap: round; stroke-linejoin: round;"/>
		<path id="_Rectangle_2" class="st0" d="M9,2.5h6c0.8,0,1.5,0.7,1.5,1.5v1.5l0,0h-9l0,0V4C7.5,3.2,8.2,2.5,9,2.5z" style="fill: none; stroke: #303C42; stroke-linecap: round; stroke-linejoin: round;"/>
		<polygon id="_Path_" class="st0" points="16.5,12.5 13.5,12.5 13.5,9.5 10.5,9.5 10.5,12.5 7.5,12.5 7.5,15.5 10.5,15.5     10.5,18.5 13.5,18.5 13.5,15.5 16.5,15.5   " style="fill: none; stroke: #303C42; stroke-linecap: round; stroke-linejoin: round;"/>
	</g>
</g>

	<metadata>
		<rdf:RDF xmlns:rdf="http://www.w3.org/1999/02/22-rdf-syntax-ns#" xmlns:rdfs="http://www.w3.org/2000/01/rdf-schema#" xmlns:dc="http://purl.org/dc/elements/1.1/">
			<rdf:Description about="https://iconscout.com/legal#licenses" dc:title="medical; case; equipment; lugadge" dc:description="medical; case; equipment; lugadge" dc:publisher="Iconscout" dc:date="2017-02-16" dc:format="image/svg+xml" dc:language="en">
				<dc:creator>
					<rdf:Bag>
						<rdf:li>Alpár - Etele Méder</rdf:li>
					</rdf:Bag>
				</dc:creator>
			</rdf:Description>
		</rdf:RDF>
    </metadata></svg>
