<svg fill="#000000" xmlns="http://www.w3.org/2000/svg"  viewBox="0 0 80 80" width="480px" height="480px"><path fill="none" stroke="#000000" stroke-miterlimit="10" stroke-width="2" d="M7 15H73V65H7z"/><path d="M13 59A1 1 0 1 0 13 61 1 1 0 1 0 13 59zM13 55A1 1 0 1 0 13 57 1 1 0 1 0 13 55zM13 51A1 1 0 1 0 13 53 1 1 0 1 0 13 51zM13 47A1 1 0 1 0 13 49 1 1 0 1 0 13 47zM13 43A1 1 0 1 0 13 45 1 1 0 1 0 13 43zM13 39A1 1 0 1 0 13 41 1 1 0 1 0 13 39zM13 35A1 1 0 1 0 13 37 1 1 0 1 0 13 35zM13 31A1 1 0 1 0 13 33 1 1 0 1 0 13 31zM13 27A1 1 0 1 0 13 29 1 1 0 1 0 13 27zM13 23A1 1 0 1 0 13 25 1 1 0 1 0 13 23zM13 19A1 1 0 1 0 13 21 1 1 0 1 0 13 19z"/><path fill="none" stroke="#000000" stroke-miterlimit="10" stroke-width="2" d="M20 30L49 30M66 25.734L59.501 32 56 28.409M20 40L49 40M66 35.734L59.501 42 56 38.409M20 50L49 50M66 45.734L59.501 52 56 48.409"/></svg>