<svg fill="#000000" xmlns="http://www.w3.org/2000/svg"  viewBox="0 0 64 64" width="512px" height="512px"><path d="M16 46c-.553 0-1 .447-1 1v2c0 .553.447 1 1 1s1-.447 1-1v-2C17 46.447 16.553 46 16 46zM11 46c-.553 0-1 .447-1 1v2c0 .553.447 1 1 1s1-.447 1-1v-2C12 46.447 11.553 46 11 46zM6 46c-.553 0-1 .447-1 1v2c0 .553.447 1 1 1s1-.447 1-1v-2C7 46.447 6.553 46 6 46zM21 46c-.553 0-1 .447-1 1v2c0 .553.447 1 1 1s1-.447 1-1v-2C22 46.447 21.553 46 21 46zM26 46c-.553 0-1 .447-1 1v2c0 .553.447 1 1 1s1-.447 1-1v-2C27 46.447 26.553 46 26 46zM31 46c-.553 0-1 .447-1 1v2c0 .553.447 1 1 1s1-.447 1-1v-2C32 46.447 31.553 46 31 46zM19 22h4c.553 0 1-.447 1-1s-.447-1-1-1h-4c-.553 0-1 .447-1 1S18.447 22 19 22zM27 22h17c.553 0 1-.447 1-1s-.447-1-1-1H27c-.553 0-1 .447-1 1S26.447 22 27 22zM19 30h21c.553 0 1-.447 1-1s-.447-1-1-1H19c-.553 0-1 .447-1 1S18.447 30 19 30zM31 36H19c-.553 0-1 .447-1 1s.447 1 1 1h12c.553 0 1-.447 1-1S31.553 36 31 36zM10.293 23.707C10.488 23.902 10.744 24 11 24s.512-.098.707-.293l4-4c.391-.391.391-1.023 0-1.414s-1.023-.391-1.414 0L11 21.586l-1.293-1.293c-.391-.391-1.023-.391-1.414 0s-.391 1.023 0 1.414L10.293 23.707zM10.293 31.707C10.488 31.902 10.744 32 11 32s.512-.098.707-.293l4-4c.391-.391.391-1.023 0-1.414s-1.023-.391-1.414 0L11 29.586l-1.293-1.293c-.391-.391-1.023-.391-1.414 0s-.391 1.023 0 1.414L10.293 31.707zM11 40c.256 0 .512-.098.707-.293l4-4c.391-.391.391-1.023 0-1.414s-1.023-.391-1.414 0L11 37.586l-1.293-1.293c-.391-.391-1.023-.391-1.414 0s-.391 1.023 0 1.414l2 2C10.488 39.902 10.744 40 11 40z"/><path d="M56,31.743V9c0-1.654-1.346-3-3-3H3C1.346,6,0,7.346,0,9v42c0,1.654,1.346,3,3,3h31.414l-3.293,3.293c-1.493,1.492-1.493,3.922,0,5.414c0.746,0.746,1.727,1.119,2.707,1.119s1.961-0.373,2.707-1.119l4.586-4.586c0.079-0.079,0.229-0.242,0.242-0.234C43.604,59.22,46.209,60,49,60c8.271,0,15-6.729,15-15C64,39.256,60.752,34.263,56,31.743z M2,9c0-0.552,0.448-1,1-1h50c0.552,0,1,0.448,1,1v3H2V9z M3,52c-0.552,0-1-0.448-1-1V14h52v16.875C52.433,30.319,50.755,30,49,30c-8.271,0-15,6.729-15,15c0,2.528,0.634,4.908,1.743,7H3z M35.121,61.293c-0.713,0.713-1.873,0.713-2.586,0s-0.713-1.873,0-2.586l4.585-4.585c0.747,0.97,1.604,1.849,2.561,2.611L35.121,61.293z M49,58c-7.168,0-13-5.832-13-13s5.832-13,13-13s13,5.832,13,13S56.168,58,49,58z"/><path d="M48.914,34C42.896,34,38,38.896,38,44.914s4.896,10.914,10.914,10.914s10.914-4.896,10.914-10.914S54.932,34,48.914,34z M48.914,53.828c-4.915,0-8.914-3.999-8.914-8.914S43.999,36,48.914,36s8.914,3.999,8.914,8.914S53.829,53.828,48.914,53.828z"/><path d="M55.436,42.135c-1.116-2.617-3.676-4.309-6.521-4.309c-0.553,0-1,0.447-1,1s0.447,1,1,1c2.043,0,3.881,1.214,4.682,3.094c0.162,0.38,0.531,0.607,0.92,0.607c0.131,0,0.265-0.025,0.393-0.08C55.416,43.23,55.652,42.644,55.436,42.135z"/></svg>