<svg fill="#000000" xmlns="http://www.w3.org/2000/svg"  viewBox="0 0 64 64" width="512px" height="512px"><path d="M16 46c-.553 0-1 .447-1 1v2c0 .553.447 1 1 1s1-.447 1-1v-2C17 46.447 16.553 46 16 46zM11 46c-.553 0-1 .447-1 1v2c0 .553.447 1 1 1s1-.447 1-1v-2C12 46.447 11.553 46 11 46zM6 46c-.553 0-1 .447-1 1v2c0 .553.447 1 1 1s1-.447 1-1v-2C7 46.447 6.553 46 6 46zM21 46c-.553 0-1 .447-1 1v2c0 .553.447 1 1 1s1-.447 1-1v-2C22 46.447 21.553 46 21 46zM26 46c-.553 0-1 .447-1 1v2c0 .553.447 1 1 1s1-.447 1-1v-2C27 46.447 26.553 46 26 46zM31 46c-.553 0-1 .447-1 1v2c0 .553.447 1 1 1s1-.447 1-1v-2C32 46.447 31.553 46 31 46zM36 46c-.553 0-1 .447-1 1v2c0 .553.447 1 1 1s1-.447 1-1v-2C37 46.447 36.553 46 36 46zM19 22h4c.553 0 1-.447 1-1s-.447-1-1-1h-4c-.553 0-1 .447-1 1S18.447 22 19 22zM27 22h17c.553 0 1-.447 1-1s-.447-1-1-1H27c-.553 0-1 .447-1 1S26.447 22 27 22zM19 30h25c.553 0 1-.447 1-1s-.447-1-1-1H19c-.553 0-1 .447-1 1S18.447 30 19 30zM34 36H19c-.553 0-1 .447-1 1s.447 1 1 1h15c.553 0 1-.447 1-1S34.553 36 34 36zM10.293 23.707C10.488 23.902 10.744 24 11 24s.512-.098.707-.293l4-4c.391-.391.391-1.023 0-1.414s-1.023-.391-1.414 0L11 21.586l-1.293-1.293c-.391-.391-1.023-.391-1.414 0s-.391 1.023 0 1.414L10.293 23.707zM10.293 31.707C10.488 31.902 10.744 32 11 32s.512-.098.707-.293l4-4c.391-.391.391-1.023 0-1.414s-1.023-.391-1.414 0L11 29.586l-1.293-1.293c-.391-.391-1.023-.391-1.414 0s-.391 1.023 0 1.414L10.293 31.707zM11 40c.256 0 .512-.098.707-.293l4-4c.391-.391.391-1.023 0-1.414s-1.023-.391-1.414 0L11 37.586l-1.293-1.293c-.391-.391-1.023-.391-1.414 0s-.391 1.023 0 1.414l2 2C10.488 39.902 10.744 40 11 40z"/><path d="M56,35.003V9c0-1.654-1.346-3-3-3H3C1.346,6,0,7.346,0,9v42c0,1.654,1.346,3,3,3h37.063c2.314,3.602,6.347,6,10.937,6c7.168,0,13-5.832,13-13C64,41.603,60.693,36.966,56,35.003z M2,9c0-0.552,0.448-1,1-1h50c0.552,0,1,0.448,1,1v3H2V9z M3,52c-0.552,0-1-0.448-1-1V14h52v20.363C53.035,34.134,52.034,34,51,34c-7.168,0-13,5.832-13,13c0,1.771,0.359,3.46,1.003,5H3z M51,58c-6.065,0-11-4.935-11-11s4.935-11,11-11s11,4.935,11,11S57.065,58,51,58z"/><path d="M57,46h-5v-5c0-0.553-0.447-1-1-1s-1,0.447-1,1v5h-5c-0.553,0-1,0.447-1,1s0.447,1,1,1h5v5c0,0.553,0.447,1,1,1s1-0.447,1-1v-5h5c0.553,0,1-0.447,1-1S57.553,46,57,46z"/></svg>