<svg fill="#000000" xmlns="http://www.w3.org/2000/svg"  viewBox="0 0 64 64" width="512px" height="512px"><path d="M16 46c-.553 0-1 .447-1 1v2c0 .553.447 1 1 1s1-.447 1-1v-2C17 46.447 16.553 46 16 46zM11 46c-.553 0-1 .447-1 1v2c0 .553.447 1 1 1s1-.447 1-1v-2C12 46.447 11.553 46 11 46zM6 46c-.553 0-1 .447-1 1v2c0 .553.447 1 1 1s1-.447 1-1v-2C7 46.447 6.553 46 6 46zM21 46c-.553 0-1 .447-1 1v2c0 .553.447 1 1 1s1-.447 1-1v-2C22 46.447 21.553 46 21 46zM26 46c-.553 0-1 .447-1 1v2c0 .553.447 1 1 1s1-.447 1-1v-2C27 46.447 26.553 46 26 46zM31 46c-.553 0-1 .447-1 1v2c0 .553.447 1 1 1s1-.447 1-1v-2C32 46.447 31.553 46 31 46zM36 46c-.553 0-1 .447-1 1v2c0 .553.447 1 1 1s1-.447 1-1v-2C37 46.447 36.553 46 36 46zM19 22h4c.553 0 1-.447 1-1s-.447-1-1-1h-4c-.553 0-1 .447-1 1S18.447 22 19 22zM27 22h16c.553 0 1-.447 1-1s-.447-1-1-1H27c-.553 0-1 .447-1 1S26.447 22 27 22zM19 30h24c.553 0 1-.447 1-1s-.447-1-1-1H19c-.553 0-1 .447-1 1S18.447 30 19 30zM36 37c0-.553-.447-1-1-1H19c-.553 0-1 .447-1 1s.447 1 1 1h16C35.553 38 36 37.553 36 37zM10.293 23.707C10.488 23.902 10.744 24 11 24s.512-.098.707-.293l4-4c.391-.391.391-1.023 0-1.414s-1.023-.391-1.414 0L11 21.586l-1.293-1.293c-.391-.391-1.023-.391-1.414 0s-.391 1.023 0 1.414L10.293 23.707zM10.293 31.707C10.488 31.902 10.744 32 11 32s.512-.098.707-.293l4-4c.391-.391.391-1.023 0-1.414s-1.023-.391-1.414 0L11 29.586l-1.293-1.293c-.391-.391-1.023-.391-1.414 0s-.391 1.023 0 1.414L10.293 31.707zM11 40c.256 0 .512-.098.707-.293l4-4c.391-.391.391-1.023 0-1.414s-1.023-.391-1.414 0L11 37.586l-1.293-1.293c-.391-.391-1.023-.391-1.414 0s-.391 1.023 0 1.414l2 2C10.488 39.902 10.744 40 11 40z"/><path d="M56,35V9c0-1.65-1.35-3-3-3H3C1.35,6,0,7.35,0,9v42c0,1.65,1.35,3,3,3h37.05c2.31,3.61,6.35,6,10.95,6c7.17,0,13-5.83,13-13C64,41.6,60.69,36.96,56,35z M2,9c0-0.55,0.45-1,1-1h50c0.55,0,1,0.45,1,1v3H2V9z M3,52c-0.55,0-1-0.45-1-1V14h52v20.35C53.04,34.12,52.03,34,51,34c-7.17,0-13,5.83-13,13c0,1.77,0.36,3.46,1,5H3z M51,58c-3.41,0-6.47-1.56-8.49-4c-0.51-0.62-0.95-1.29-1.31-2c-0.77-1.5-1.2-3.2-1.2-5c0-6.07,4.93-11,11-11c1.04,0,2.05,0.14,3,0.42c0.7,0.19,1.37,0.46,2,0.78c3.56,1.82,6,5.53,6,9.8C62,53.07,57.07,58,51,58z"/><path d="M51.04 51A2 2 0 1 0 51.04 55 2 2 0 1 0 51.04 51zM51 50c.508 0 .936-.381.993-.886l.928-8.041c.041-.533-.145-1.063-.508-1.456-.728-.786-2.102-.783-2.827.001-.363.393-.548.924-.502 1.493l.923 8.003C50.064 49.619 50.492 50 51 50z"/></svg>