<?xml version="1.0" encoding="UTF-8" standalone="no"?>
<svg xmlns="http://www.w3.org/2000/svg" viewBox="0 0 24 24"><title>Save User Info</title><g id="Save_User_Info" data-name="Save User Info"><path id="_Path_" data-name="&lt;Path&gt;" d="M23.5,16.25v6.5a.75.75,0,0,1-.75.75h-7.5a.75.75,0,0,1-.75-.75v-7.5a.75.75,0,0,1,.75-.75h6.5Z" style="fill:none;stroke:#303c42;stroke-linecap:round;stroke-linejoin:round"/><path id="_Path_2" data-name="&lt;Path&gt;" d="M21.5,14.5v2.27a.75.75,0,0,1-.75.75h-3.5a.75.75,0,0,1-.75-.75V14.5" style="fill:none;stroke:#303c42;stroke-linecap:round;stroke-linejoin:round"/><line id="_Path_3" data-name="&lt;Path&gt;" x1="19.5" y1="15.5" x2="19.5" y2="16.5" style="fill:none;stroke:#303c42;stroke-linecap:round;stroke-linejoin:round"/><polyline id="_Path_4" data-name="&lt;Path&gt;" points="16.5 23.5 16.5 19.5 21.5 19.5 21.5 23.5" style="fill:none;stroke:#303c42;stroke-linecap:round;stroke-linejoin:round"/><g id="_Group_" data-name="&lt;Group&gt;"><circle id="_Path_5" data-name="&lt;Path&gt;" cx="11" cy="6" r="5.5" style="fill:none;stroke:#303c42;stroke-linecap:round;stroke-linejoin:round"/><path d="M16.51,14.5a16.85,16.85,0,0,0-5.51-1,18.74,18.74,0,0,0-8.31,2.2A4,4,0,0,0,.5,19.27V20A1.5,1.5,0,0,0,2,21.5H14.5" style="fill:none;stroke:#303c42;stroke-linecap:round;stroke-linejoin:round"/></g></g>
	<metadata>
		<rdf:RDF xmlns:rdf="http://www.w3.org/1999/02/22-rdf-syntax-ns#" xmlns:rdfs="http://www.w3.org/2000/01/rdf-schema#" xmlns:dc="http://purl.org/dc/elements/1.1/">
			<rdf:Description about="https://iconscout.com/legal#licenses" dc:title="action; people; user; save; info" dc:description="action; people; user; save; info" dc:publisher="Iconscout" dc:date="2017-02-16" dc:format="image/svg+xml" dc:language="en">
				<dc:creator>
					<rdf:Bag>
						<rdf:li>Alpár - Etele Méder</rdf:li>
					</rdf:Bag>
				</dc:creator>
			</rdf:Description>
		</rdf:RDF>
    </metadata></svg>
