<?xml version="1.0" encoding="UTF-8" standalone="no"?>
<svg xmlns="http://www.w3.org/2000/svg" viewBox="0 0 24 24"><title>User Message 1</title><g id="User_Message_1" data-name="User Message 1"><circle id="_Path_" data-name="&lt;Path&gt;" cx="8" cy="11" r="3.5" style="fill:none;stroke:#303c42;stroke-linecap:round;stroke-linejoin:round"/><path id="_Path_2" data-name="&lt;Path&gt;" d="M8,16.5a12.9,12.9,0,0,0-5.94,1.65A3,3,0,0,0,.5,20.83v.55A1.1,1.1,0,0,0,1.57,22.5H14.43a1.1,1.1,0,0,0,1.07-1.12v-.55a3,3,0,0,0-1.56-2.68A12.9,12.9,0,0,0,8,16.5Z" style="fill:none;stroke:#303c42;stroke-linecap:round;stroke-linejoin:round"/><path id="_Path_3" data-name="&lt;Path&gt;" d="M14.5,1.5a1,1,0,0,0-1,1v9l2-2h7a1,1,0,0,0,1-1v-6a1,1,0,0,0-1-1Z" style="fill:none;stroke:#303c42;stroke-linecap:round;stroke-linejoin:round"/></g>
	<metadata>
		<rdf:RDF xmlns:rdf="http://www.w3.org/1999/02/22-rdf-syntax-ns#" xmlns:rdfs="http://www.w3.org/2000/01/rdf-schema#" xmlns:dc="http://purl.org/dc/elements/1.1/">
			<rdf:Description about="https://iconscout.com/legal#licenses" dc:title="message; chat; bubble; user" dc:description="message; chat; bubble; user" dc:publisher="Iconscout" dc:date="2017-02-21" dc:format="image/svg+xml" dc:language="en">
				<dc:creator>
					<rdf:Bag>
						<rdf:li>Alpár - Etele Méder</rdf:li>
					</rdf:Bag>
				</dc:creator>
			</rdf:Description>
		</rdf:RDF>
    </metadata></svg>
