<?xml version="1.0" encoding="UTF-8" standalone="no"?>
<svg xmlns="http://www.w3.org/2000/svg" viewBox="0 0 24 24"><title>User Settings</title><g id="User_Settings" data-name="User Settings"><g id="_Group_" data-name="&lt;Group&gt;"><path id="_Path_" data-name="&lt;Path&gt;" d="M23.5,19.5v-2l-1.24-.31a4,4,0,0,0-.17-.43l.65-1.09-1.41-1.41-1.09.65a4,4,0,0,0-.43-.17L19.5,13.5h-2l-.31,1.24a4,4,0,0,0-.43.17l-1.09-.65-1.41,1.41.65,1.09a4,4,0,0,0-.17.43l-1.24.31v2l1.24.31a4,4,0,0,0,.17.43l-.65,1.09,1.41,1.41,1.09-.65a4,4,0,0,0,.43.17l.31,1.24h2l.31-1.24a4,4,0,0,0,.43-.17l1.09.65,1.41-1.41-.65-1.09a4,4,0,0,0,.17-.43Z" style="fill:none;stroke:#303c42;stroke-linecap:round;stroke-linejoin:round"/><circle id="_Path_2" data-name="&lt;Path&gt;" cx="18.5" cy="18.5" r="2" style="fill:none;stroke:#303c42;stroke-linecap:round;stroke-linejoin:round"/></g><g id="_Group_2" data-name="&lt;Group&gt;"><circle id="_Path_3" data-name="&lt;Path&gt;" cx="11" cy="6" r="5.5" style="fill:none;stroke:#303c42;stroke-linecap:round;stroke-linejoin:round"/><path d="M17.17,14.75A17.26,17.26,0,0,0,11,13.5a18.74,18.74,0,0,0-8.31,2.2A4,4,0,0,0,.5,19.27V20A1.5,1.5,0,0,0,2,21.5H14.43" style="fill:none;stroke:#303c42;stroke-linecap:round;stroke-linejoin:round"/></g></g>
	<metadata>
		<rdf:RDF xmlns:rdf="http://www.w3.org/1999/02/22-rdf-syntax-ns#" xmlns:rdfs="http://www.w3.org/2000/01/rdf-schema#" xmlns:dc="http://purl.org/dc/elements/1.1/">
			<rdf:Description about="https://iconscout.com/legal#licenses" dc:title="action; people; user; settings" dc:description="action; people; user; settings" dc:publisher="Iconscout" dc:date="2017-02-16" dc:format="image/svg+xml" dc:language="en">
				<dc:creator>
					<rdf:Bag>
						<rdf:li>Alpár - Etele Méder</rdf:li>
					</rdf:Bag>
				</dc:creator>
			</rdf:Description>
		</rdf:RDF>
    </metadata></svg>
