<svg xmlns="http://www.w3.org/2000/svg" viewBox="0 0 16 16">
    <path d="M6,8c0,-2.20557 1.79443,-4 4,-4h2v-2c0,-1.10303 -0.896973,-2 -2,-2h-10v16h10c1.10303,0 2,-0.896973 2,-2v-2h-2c-2.20557,0 -4,-1.79443 -4,-4Zm-3,7h-2v-14h2v14Z"
          transform="translate(1)"/>
    <path d="M3,0c-1.6543,0 -3,1.3457 -3,3c0,1.6543 1.3457,3 3,3h4v-6h-4Zm0,4c-0.552307,0 -1,-0.447754 -1,-1c0,-0.552307 0.447693,-1 1,-1c0.552307,0 1,0.447693 1,1c0,0.552246 -0.447693,1 -1,1Z"
          transform="translate(8 5)"/>
</svg>