<?xml version="1.0" encoding="utf-8"?>
<svg xmlns="http://www.w3.org/2000/svg" xmlns:xlink="http://www.w3.org/1999/xlink" version="1.1" id="Layer_1" x="0px" y="0px" viewBox="0 0 24 24" style="enable-background:new 0 0 24 24;" xml:space="preserve">
<style type="text/css">
	.st0{fill:none;stroke:#303C42;stroke-linecap:round;stroke-linejoin:round;}
</style>
<title>Nurse</title>
<g id="Nurse">
	<path class="st0" d="M15.2,22.5c6.4-0.2,8.3-1,8.3-1c-1.7-3.3-3-5.4-3-9.5c0-2-0.6-4-1.8-5.7" style="fill: none; stroke: #303C42; stroke-linecap: round; stroke-linejoin: round;"/>
	<path class="st0" d="M5.2,6.2C4.1,7.9,3.5,9.9,3.5,12c0,4.1-1.3,6.2-3,9.5c0,0,1.9,0.8,8.3,1" style="fill: none; stroke: #303C42; stroke-linecap: round; stroke-linejoin: round;"/>
	<path class="st0" d="M14.4,6.7c-0.9,2.9-7.4,6.8-9.9,6.8c-0.8,0.3-1,1-1,2s1,3,2.1,3c0.4,0.9,2.4,5,6.4,5s5.9-4.1,6.4-5   c1.1,0,2.1-2.1,2.1-3s-0.2-1.7-1-2c-2.1,0-4.6-3.9-5-6.8" style="fill: none; stroke: #303C42; stroke-linecap: round; stroke-linejoin: round;"/>
	<circle id="_Path_" class="st0" cx="8.5" cy="14" r="0.5" style="fill: none; stroke: #303C42; stroke-linecap: round; stroke-linejoin: round;"/>
	<circle id="_Path_2" class="st0" cx="15.5" cy="14" r="0.5" style="fill: none; stroke: #303C42; stroke-linecap: round; stroke-linejoin: round;"/>
	<line class="st0" x1="15.5" y1="13.5" x2="16.5" y2="13.5" style="fill: none; stroke: #303C42; stroke-linecap: round; stroke-linejoin: round;"/>
	<line class="st0" x1="8.5" y1="13.5" x2="7.5" y2="13.5" style="fill: none; stroke: #303C42; stroke-linecap: round; stroke-linejoin: round;"/>
	<path class="st0" d="M12,6.5c2.2,0.1,4.4,0.4,6.5,1l1-5c-2.3-1.2-4.9-1.9-7.5-2c-2.6,0.1-5.2,0.8-7.5,2l1,5C7.6,6.9,9.8,6.6,12,6.5   z" style="fill: none; stroke: #303C42; stroke-linecap: round; stroke-linejoin: round;"/>
	<line class="st0" x1="12" y1="2" x2="12" y2="5" style="fill: none; stroke: #303C42; stroke-linecap: round; stroke-linejoin: round;"/>
	<line class="st0" x1="10.5" y1="3.5" x2="13.5" y2="3.5" style="fill: none; stroke: #303C42; stroke-linecap: round; stroke-linejoin: round;"/>
</g>

	<metadata>
		<rdf:RDF xmlns:rdf="http://www.w3.org/1999/02/22-rdf-syntax-ns#" xmlns:rdfs="http://www.w3.org/2000/01/rdf-schema#" xmlns:dc="http://purl.org/dc/elements/1.1/">
			<rdf:Description about="https://iconscout.com/legal#licenses" dc:title="people; avatar; head; nurse; medical" dc:description="people; avatar; head; nurse; medical" dc:publisher="Iconscout" dc:date="2017-02-16" dc:format="image/svg+xml" dc:language="en">
				<dc:creator>
					<rdf:Bag>
						<rdf:li>Alpár - Etele Méder</rdf:li>
					</rdf:Bag>
				</dc:creator>
			</rdf:Description>
		</rdf:RDF>
    </metadata></svg>
